<svg width="382" height="43" viewBox="0 0 382 43" fill="none" xmlns="http://www.w3.org/2000/svg">
<path d="M0.536953 42V0.839997H6.05695L26.037 27.96C26.237 28.2 26.497 28.56 26.817 29.04C27.137 29.52 27.457 30 27.777 30.48C28.097 30.92 28.357 31.32 28.557 31.68H28.797C28.797 31.04 28.797 30.42 28.797 29.82C28.797 29.18 28.797 28.56 28.797 27.96V0.839997H34.377V42H29.157L8.93695 14.4C8.65695 13.96 8.23695 13.34 7.67695 12.54C7.15695 11.74 6.71695 11.1 6.35695 10.62H6.05695C6.05695 11.26 6.05695 11.9 6.05695 12.54C6.05695 13.14 6.05695 13.76 6.05695 14.4V42H0.536953ZM56.8366 42.72C53.6366 42.72 50.9366 42.24 48.7366 41.28C46.5366 40.28 44.8766 38.88 43.7566 37.08C42.6366 35.28 42.0766 33.14 42.0766 30.66V29.88H47.4166V30.66C47.4166 33.14 48.1966 35.04 49.7566 36.36C51.3566 37.64 53.5566 38.28 56.3566 38.28C59.1566 38.28 61.4166 37.68 63.1366 36.48C64.8566 35.24 65.7166 33.28 65.7166 30.6C65.7166 28.64 65.2566 27.14 64.3366 26.1C63.4166 25.06 62.2166 24.34 60.7366 23.94C59.2966 23.5 57.7566 23.28 56.1166 23.28H51.7966V18.84H56.2966C57.8166 18.84 59.2166 18.6 60.4966 18.12C61.7766 17.64 62.7966 16.86 63.5566 15.78C64.3566 14.66 64.7566 13.22 64.7566 11.46C64.7566 9.86 64.3966 8.56 63.6766 7.56C62.9966 6.56 62.0566 5.82 60.8566 5.34C59.6566 4.82 58.3366 4.56 56.8966 4.56C55.2966 4.56 53.8566 4.84 52.5766 5.4C51.2966 5.92 50.2766 6.72 49.5166 7.8C48.7966 8.88 48.4366 10.24 48.4366 11.88V12.66H43.0366V11.58C43.0366 9.3 43.6166 7.3 44.7766 5.58C45.9766 3.86 47.5966 2.52 49.6366 1.56C51.7166 0.599999 54.0966 0.119999 56.7766 0.119999C59.4166 0.119999 61.7366 0.539999 63.7366 1.38C65.7766 2.22 67.3766 3.46 68.5366 5.1C69.6966 6.74 70.2766 8.76 70.2766 11.16C70.2766 12.92 69.9566 14.42 69.3166 15.66C68.6766 16.86 67.8366 17.86 66.7966 18.66C65.7566 19.46 64.6366 20.12 63.4366 20.64V20.88C65.6366 21.52 67.4766 22.68 68.9566 24.36C70.4366 26.04 71.1766 28.24 71.1766 30.96C71.1766 33.4 70.5566 35.5 69.3166 37.26C68.1166 39.02 66.4166 40.38 64.2166 41.34C62.0566 42.26 59.5966 42.72 56.8366 42.72ZM74.6112 42L90.6912 20.4L76.1112 0.839997H83.1312L94.3512 16.14H94.6512L105.751 0.839997H112.411L98.0112 20.34L114.091 42H107.071L94.3512 24.66H94.0512L81.3912 42H74.6112ZM127.691 42L143.951 0.839997H151.451L167.771 42H161.591L157.571 31.8H137.531L133.571 42H127.691ZM139.391 26.94H155.651L150.671 14.04C150.551 13.68 150.371 13.18 150.131 12.54C149.891 11.9 149.631 11.2 149.351 10.44C149.071 9.64 148.791 8.84 148.511 8.04C148.231 7.2 147.971 6.44 147.731 5.76H147.371C147.091 6.56 146.771 7.48 146.411 8.52C146.051 9.56 145.691 10.58 145.331 11.58C144.971 12.54 144.671 13.36 144.431 14.04L139.391 26.94ZM191.108 42.72C184.468 42.72 179.408 40.98 175.928 37.5C172.488 34.02 170.768 28.66 170.768 21.42C170.768 16.7 171.568 12.76 173.168 9.6C174.768 6.44 177.128 4.08 180.248 2.52C183.368 0.919998 187.168 0.119999 191.648 0.119999C194.448 0.119999 196.988 0.419999 199.268 1.02C201.548 1.62 203.508 2.54 205.148 3.78C206.828 4.98 208.108 6.5 208.988 8.34C209.908 10.18 210.368 12.36 210.368 14.88H204.548C204.548 13.12 204.228 11.62 203.588 10.38C202.948 9.1 202.028 8.06 200.828 7.26C199.668 6.46 198.308 5.9 196.748 5.58C195.188 5.22 193.528 5.04 191.768 5.04C189.368 5.04 187.228 5.34 185.348 5.94C183.468 6.54 181.888 7.48 180.608 8.76C179.328 10.04 178.348 11.68 177.668 13.68C176.988 15.68 176.648 18.06 176.648 20.82V22.08C176.648 25.8 177.208 28.82 178.328 31.14C179.488 33.46 181.148 35.16 183.308 36.24C185.468 37.28 188.068 37.8 191.108 37.8C194.188 37.8 196.728 37.38 198.728 36.54C200.728 35.66 202.208 34.34 203.168 32.58C204.168 30.82 204.668 28.6 204.668 25.92V25.2H190.148V20.34H210.428V42H206.108L205.508 36.78C204.428 38.18 203.148 39.32 201.668 40.2C200.188 41.08 198.548 41.72 196.748 42.12C194.988 42.52 193.108 42.72 191.108 42.72ZM220.322 42V0.839997H252.002V5.76H226.022V18.48H249.362V23.4H226.022V37.08H252.362V42H220.322ZM260.928 42V0.839997H266.448L286.428 27.96C286.628 28.2 286.888 28.56 287.208 29.04C287.528 29.52 287.848 30 288.168 30.48C288.488 30.92 288.748 31.32 288.948 31.68H289.188C289.188 31.04 289.188 30.42 289.188 29.82C289.188 29.18 289.188 28.56 289.188 27.96V0.839997H294.768V42H289.548L269.328 14.4C269.048 13.96 268.628 13.34 268.068 12.54C267.548 11.74 267.108 11.1 266.748 10.62H266.448C266.448 11.26 266.448 11.9 266.448 12.54C266.448 13.14 266.448 13.76 266.448 14.4V42H260.928ZM322.687 42.72C318.487 42.72 314.927 41.96 312.007 40.44C309.087 38.88 306.847 36.54 305.287 33.42C303.767 30.26 303.007 26.26 303.007 21.42C303.007 14.26 304.747 8.92 308.227 5.4C311.707 1.88 316.547 0.119999 322.747 0.119999C326.267 0.119999 329.387 0.699999 332.107 1.86C334.827 2.98 336.947 4.7 338.467 7.02C340.027 9.3 340.807 12.18 340.807 15.66H335.047C335.047 13.26 334.527 11.28 333.487 9.72C332.487 8.16 331.067 7 329.227 6.24C327.387 5.44 325.227 5.04 322.747 5.04C319.867 5.04 317.387 5.6 315.307 6.72C313.227 7.84 311.647 9.58 310.567 11.94C309.487 14.26 308.947 17.26 308.947 20.94V22.2C308.947 25.84 309.487 28.82 310.567 31.14C311.647 33.42 313.207 35.1 315.247 36.18C317.327 37.26 319.827 37.8 322.747 37.8C325.307 37.8 327.507 37.42 329.347 36.66C331.227 35.9 332.667 34.74 333.667 33.18C334.707 31.58 335.227 29.58 335.227 27.18H340.807C340.807 30.74 340.007 33.66 338.407 35.94C336.847 38.22 334.707 39.92 331.987 41.04C329.267 42.16 326.167 42.72 322.687 42.72ZM360.107 42V24.9L343.907 0.839997H350.447L362.987 19.86H363.287L375.767 0.839997H382.007L365.867 24.9V42H360.107Z" fill="black"/>
</svg>
